<?xml version="1.0" encoding="UTF-8"?>
<svg width="1024px" height="1024px" viewBox="0 0 1024 1024" version="1.1" xmlns="http://www.w3.org/2000/svg" xmlns:xlink="http://www.w3.org/1999/xlink">
    <!-- Generator: Sketch 42 (36781) - http://www.bohemiancoding.com/sketch -->
    <title>icon</title>
    <desc>Created with Sketch.</desc>
    <defs></defs>
    <g id="Page-1" stroke="none" stroke-width="1" fill="none" fill-rule="evenodd">
        <g id="Group-2">
            <circle id="Oval" fill="#3C4C55" cx="511.900156" cy="511.900156" r="511.900156"></circle>
            <g id="ticks" transform="translate(43.118729, 52.955189)" fill-rule="nonzero" fill="#7FC1CA">
                <g id="Group">
                    <path d="M468.781427,0 C459.020021,0 451.129698,7.89032309 451.129698,17.6517295 L451.129698,52.9551886 C451.129698,62.716595 459.020021,70.6069181 468.781427,70.6069181 C478.542834,70.6069181 486.433157,62.716595 486.433157,52.9551886 L486.433157,17.6517295 C486.433157,7.89032309 478.542834,0 468.781427,0 Z" id="Shape"></path>
                    <path d="M918.90053,441.293238 L883.597071,441.293238 C873.835665,441.293238 865.945342,449.183561 865.945342,458.944967 C865.945342,468.706374 873.835665,476.596697 883.597071,476.596697 L918.90053,476.596697 C928.661937,476.596697 936.55226,468.706374 936.55226,458.944967 C936.55226,449.183561 928.661937,441.293238 918.90053,441.293238 Z" id="Shape"></path>
                    <path d="M71.6175133,458.944967 C71.6175133,449.183561 63.7271902,441.293238 53.9657838,441.293238 L18.6623247,441.293238 C8.9009183,441.293238 1.0105952,449.183561 1.0105952,458.944967 C1.0105952,468.706374 8.9009183,476.596697 18.6623247,476.596697 L53.9657838,476.596697 C63.7271902,476.596697 71.6175133,468.688722 71.6175133,458.944967 Z" id="Shape"></path>
                    <path d="M702.666844,62.6812915 C694.211665,57.8094142 683.426458,60.6866461 678.554581,69.1418245 L660.902851,99.6969683 C656.030974,108.152147 658.925858,118.937353 667.363384,123.809231 C670.134706,125.415538 673.170803,126.174563 676.171598,126.174563 C682.279096,126.174563 688.210077,123.014903 691.475647,117.348698 L709.127377,86.793554 C714.016906,78.3383756 711.122022,67.5531689 702.666844,62.6812915 Z" id="Shape"></path>
                    <path d="M118.359293,245.076613 L87.7864975,227.424883 C79.3489708,222.553006 68.5461123,225.447889 63.674235,233.885416 C58.8023576,242.322943 61.6972413,253.125801 70.134768,257.997679 L100.707564,275.649408 C103.478885,277.255716 106.514983,278.01474 109.515777,278.01474 C115.623275,278.01474 121.554256,274.837429 124.819826,269.188875 C129.709355,260.733697 126.814471,249.94849 118.359293,245.076613 Z" id="Shape"></path>
                    <path d="M258.920015,68.5416657 C254.048138,60.0864873 243.209976,57.1916036 234.807753,62.0811327 C226.352574,66.9530101 223.457691,77.7558685 228.34722,86.1933952 L245.998949,116.766191 C249.282171,122.414744 255.1955,125.592056 261.302999,125.592056 C264.303793,125.592056 267.33989,124.833031 270.111212,123.226724 C278.56639,118.354846 281.461274,107.551988 276.571745,99.1144612 L258.920015,68.5416657 Z" id="Shape"></path>
                    <path d="M468.781427,0 C459.020021,0 451.129698,7.89032309 451.129698,17.6517295 L451.129698,52.9551886 C451.129698,62.716595 459.020021,70.6069181 468.781427,70.6069181 C478.542834,70.6069181 486.433157,62.716595 486.433157,52.9551886 L486.433157,17.6517295 C486.433157,7.89032309 478.542834,0 468.781427,0 Z" id="Shape"></path>
                    <path d="M702.666844,62.6812915 C694.211665,57.8094142 683.426458,60.6866461 678.554581,69.1418245 L660.902851,99.6969683 C656.030974,108.152147 658.925858,118.937353 667.363384,123.809231 C670.134706,125.415538 673.170803,126.174563 676.171598,126.174563 C682.279096,126.174563 688.210077,123.014903 691.475647,117.348698 L709.127377,86.793554 C714.016906,78.3383756 711.122022,67.5531689 702.666844,62.6812915 Z" id="Shape"></path>
                    <path d="M258.920015,68.5416657 C254.048138,60.0864873 243.209976,57.1916036 234.807753,62.0811327 C226.352574,66.9530101 223.457691,77.7558685 228.34722,86.1933952 L245.998949,116.766191 C249.282171,122.414744 255.1955,125.592056 261.302999,125.592056 C264.303793,125.592056 267.33989,124.833031 270.111212,123.226724 C278.56639,118.354846 281.461274,107.551988 276.571745,99.1144612 L258.920015,68.5416657 Z" id="Shape"></path>
                    <path d="M823.563539,269.789034 C826.564333,269.789034 829.60043,269.03001 832.371752,267.423702 L862.926896,249.771973 C871.382074,244.900095 874.276958,234.097237 869.387429,225.65971 C864.4979,217.204532 853.67739,214.291996 845.275166,219.199177 L814.720022,236.850907 C806.264844,241.722784 803.36996,252.525642 808.259489,260.963169 C811.525059,266.629374 817.456041,269.789034 823.563539,269.789034 Z" id="Shape"></path>
                </g>
                <g id="Group-Copy" transform="translate(466.311084, 777.619321) scale(1, -1) translate(-466.311084, -777.619321) translate(59.917067, 638.247014)">
                    <path d="M408.864361,0 C399.102954,0 391.212631,7.89032309 391.212631,17.6517295 L391.212631,52.9551886 C391.212631,62.716595 399.102954,70.6069181 408.864361,70.6069181 C418.625767,70.6069181 426.51609,62.716595 426.51609,52.9551886 L426.51609,17.6517295 C426.51609,7.89032309 418.625767,0 408.864361,0 Z" id="Shape"></path>
                    <path d="M642.749777,62.6812915 C634.294598,57.8094142 623.509392,60.6866461 618.637514,69.1418245 L600.985785,99.6969683 C596.113908,108.152147 599.008791,118.937353 607.446318,123.809231 C610.217639,125.415538 613.253737,126.174563 616.254531,126.174563 C622.362029,126.174563 628.29301,123.014903 631.55858,117.348698 L649.21031,86.793554 C654.099839,78.3383756 651.204955,67.5531689 642.749777,62.6812915 Z" id="Shape"></path>
                    <path d="M58.4422264,245.076613 L27.8694309,227.424883 C19.4319042,222.553006 8.62904573,225.447889 3.75716838,233.885416 C-1.11470896,242.322943 1.78017468,253.125801 10.2177014,257.997679 L40.7904969,275.649408 C43.5618184,277.255716 46.5979159,278.01474 49.5987099,278.01474 C55.7062084,278.01474 61.6371895,274.837429 64.9027594,269.188875 C69.7922885,260.733697 66.8974049,249.94849 58.4422264,245.076613 Z" id="Shape"></path>
                    <path d="M199.002949,68.5416657 C194.131071,60.0864873 183.292909,57.1916036 174.890686,62.0811327 C166.435508,66.9530101 163.540624,77.7558685 168.430153,86.1933952 L186.081883,116.766191 C189.365104,122.414744 195.278434,125.592056 201.385932,125.592056 C204.386726,125.592056 207.422824,124.833031 210.194145,123.226724 C218.649324,118.354846 221.544207,107.551988 216.654678,99.1144612 L199.002949,68.5416657 Z" id="Shape"></path>
                    <path d="M408.864361,0 C399.102954,0 391.212631,7.89032309 391.212631,17.6517295 L391.212631,52.9551886 C391.212631,62.716595 399.102954,70.6069181 408.864361,70.6069181 C418.625767,70.6069181 426.51609,62.716595 426.51609,52.9551886 L426.51609,17.6517295 C426.51609,7.89032309 418.625767,0 408.864361,0 Z" id="Shape"></path>
                    <path d="M642.749777,62.6812915 C634.294598,57.8094142 623.509392,60.6866461 618.637514,69.1418245 L600.985785,99.6969683 C596.113908,108.152147 599.008791,118.937353 607.446318,123.809231 C610.217639,125.415538 613.253737,126.174563 616.254531,126.174563 C622.362029,126.174563 628.29301,123.014903 631.55858,117.348698 L649.21031,86.793554 C654.099839,78.3383756 651.204955,67.5531689 642.749777,62.6812915 Z" id="Shape"></path>
                    <path d="M199.002949,68.5416657 C194.131071,60.0864873 183.292909,57.1916036 174.890686,62.0811327 C166.435508,66.9530101 163.540624,77.7558685 168.430153,86.1933952 L186.081883,116.766191 C189.365104,122.414744 195.278434,125.592056 201.385932,125.592056 C204.386726,125.592056 207.422824,124.833031 210.194145,123.226724 C218.649324,118.354846 221.544207,107.551988 216.654678,99.1144612 L199.002949,68.5416657 Z" id="Shape"></path>
                    <path d="M763.646472,269.789034 C766.647266,269.789034 769.683364,269.03001 772.454685,267.423702 L803.009829,249.771973 C811.465008,244.900095 814.359891,234.097237 809.470362,225.65971 C804.580833,217.204532 793.760323,214.291996 785.3581,219.199177 L754.802956,236.850907 C746.347777,241.722784 743.452894,252.525642 748.342423,260.963169 C751.607993,266.629374 757.538974,269.789034 763.646472,269.789034 Z" id="Shape"></path>
                </g>
            </g>
            <path d="M741.743326,303.115499 C734.8415,296.213673 723.685607,296.213673 716.783781,303.115499 L568.738725,451.178206 C541.608017,433.579432 502.986033,436.474316 479.632794,459.845206 C466.288087,473.15461 458.944967,490.894598 458.944967,509.764297 C458.944967,528.633996 466.288087,546.356332 479.632794,559.683388 C492.95985,573.028095 510.699838,580.371215 529.551886,580.371215 C548.403933,580.371215 566.143921,573.028095 579.470977,559.683388 C592.815684,546.356332 600.158804,528.616344 600.158804,509.764297 C600.158804,498.378931 597.193313,487.540769 592.127267,477.708756 L741.743326,328.075045 C748.627501,321.173219 748.627501,309.999674 741.743326,303.115499 Z M554.511431,534.723842 C541.166724,548.06855 517.937048,548.06855 504.59234,534.723842 C497.919986,528.051489 494.248426,519.19032 494.248426,509.764297 C494.248426,500.338273 497.919986,491.477105 504.59234,484.804751 C511.264694,478.132397 520.125862,474.460838 529.551886,474.460838 C538.977909,474.460838 547.839077,478.132397 554.511431,484.804751 C561.183785,491.477105 564.855345,500.320621 564.855345,509.764297 C564.855345,519.207972 561.183785,528.051489 554.511431,534.723842 Z" id="Shape" fill="#1E272C" fill-rule="nonzero"></path>
            <path d="M724.091597,285.46377 C717.18977,278.561944 706.033877,278.561944 699.132051,285.46377 L551.086996,433.526477 C523.956287,415.927703 485.334303,418.822586 461.981065,442.193476 C448.636357,455.50288 441.293238,473.242868 441.293238,492.112567 C441.293238,510.982266 448.636357,528.704603 461.981065,542.031658 C475.308121,555.376366 493.048109,562.719485 511.900156,562.719485 C530.752203,562.719485 548.492191,555.376366 561.819247,542.031658 C575.163955,528.704603 582.507074,510.964614 582.507074,492.112567 C582.507074,480.727202 579.541584,469.88904 574.475537,460.057026 L724.091597,310.423315 C730.975771,303.521489 730.975771,292.347944 724.091597,285.46377 Z M536.859702,517.072113 C523.514994,530.41682 500.285318,530.41682 486.94061,517.072113 C480.268257,510.399759 476.596697,501.538591 476.596697,492.112567 C476.596697,482.686544 480.268257,473.825375 486.94061,467.153022 C493.612964,460.480668 502.474132,456.809108 511.900156,456.809108 C521.32618,456.809108 530.187348,460.480668 536.859702,467.153022 C543.532055,473.825375 547.203615,482.668892 547.203615,492.112567 C547.203615,501.556243 543.532055,510.399759 536.859702,517.072113 Z" id="Shape" fill="#7FC1CA" fill-rule="nonzero"></path>
        </g>
    </g>
</svg>